#!OML:ASF F:\VICON\USERDATA\INSTALL\rory3\rory3.ASF
:FULLY-SPECIFIED
:DEGREES
398
root -0.0776727 17.7033 2.72399 2.57778 2.79884 -2.29166
lowerback 8.9891 2.34313 2.18674
upperback 0.444136 3.42892 1.86012
thorax -4.56269 1.66836 0.26819
lowerneck -31.2342 -14.3368 -11.1643
upperneck -0.874773 -16.4884 18.0176
head 6.99204 -6.48856 5.16621
rclavicle 3.08116e-015 1.63003e-014
rhumerus 58.3359 -51.1247 -55.7499
rradius 35.5938
rwrist 7.20301
rhand -60.0175 -28.9471
rfingers 7.12502
rthumb -32.1685 -56.1191
lclavicle 3.08116e-015 1.63003e-014
lhumerus -42.9211 10.5615 62.8903
lradius 44.4931
lwrist -1.8831
lhand -20.1852 25.2512
lfingers 7.12502
lthumb 6.16105 55.1416
rfemur -10.272 -2.59638 14.565
rtibia 27.7955
rfoot -18.1102 -6.81558
rtoes 3.7083
lfemur -13.2291 -4.18728 -11.0117
ltibia 30.2145
lfoot -15.4531 2.62568
ltoes -17.7206
399
root -0.0725331 17.698 2.73336 2.45209 3.08937 -2.44998
lowerback 8.9863 2.38495 2.12976
upperback 0.436385 3.4788 1.85311
thorax -4.57175 1.6941 0.28636
lowerneck -31.4448 -14.3407 -11.1306
upperneck -0.43102 -16.4956 17.6442
head 7.11563 -6.49284 5.02776
rclavicle -4.76089e-014 3.57812e-015
rhumerus 57.9492 -50.7803 -55.4208
rradius 35.8932
rwrist 6.43973
rhand -60.1301 -29.1458
rfingers 7.12502
rthumb -32.2757 -56.2961
lclavicle -4.76089e-014 3.57812e-015
lhumerus -42.7169 10.3449 63.0439
lradius 45.1054
lwrist -1.72414
lhand -19.6528 25.4895
lfingers 7.12502
lthumb 6.67498 55.3643
rfemur -10.0042 -2.71037 14.7285
rtibia 27.7296
rfoot -18.2088 -6.89613
rtoes 4.04503
lfemur -13.2362 -4.23186 -10.8468
ltibia 30.4046
lfoot -15.54 2.4109
ltoes -18.0303
400
root -0.0646735 17.6937 2.7489 2.41195 3.47482 -2.54684
lowerback 8.79658 2.38521 2.01781
upperback 0.418671 3.45905 1.78483
thorax -4.48629 1.68722 0.288644
lowerneck -31.6828 -14.2814 -11.0414
upperneck 0.043397 -16.4526 17.361
head 7.2562 -6.46376 4.91956
rclavicle -2.43014e-014 -2.62396e-014
rhumerus 57.9978 -50.3999 -55.6496
rradius 36.1898
rwrist 6.11943
rhand -60.4055 -29.6725
rfingers 7.12502
rthumb -32.5378 -56.7691
lclavicle -2.43014e-014 -2.62396e-014
lhumerus -42.5615 10.1027 63.148
lradius 45.6686
lwrist -1.62285
lhand -19.5676 24.2125
lfingers 7.12502
lthumb 6.75725 54.0847
rfemur -9.76503 -2.99534 14.8154
rtibia 27.654
rfoot -18.3396 -6.93359
rtoes 3.9819
lfemur -13.3375 -4.35292 -10.767
ltibia 30.6214
lfoot -15.6373 2.20684
ltoes -18.1608
401
root -0.0573715 17.6868 2.76124 2.37114 3.83016 -2.70501
lowerback 8.68384 2.42342 1.96283
upperback 0.355496 3.4991 1.7044
thorax -4.48684 1.70734 0.234643
lowerneck -31.6379 -14.2044 -11.0591
upperneck 0.209941 -16.3558 17.2555
head 7.28191 -6.42205 4.90621
rclavicle -6.60959e-015 -6.75868e-015
rhumerus 58.1658 -50.0507 -55.9939
rradius 36.4227
rwrist 6.1345
rhand -60.6029 -29.7647
rfingers 7.12502
rthumb -32.7256 -56.8224
lclavicle -6.60959e-015 -6.75868e-015
lhumerus -42.4716 9.89764 63.1826
lradius 46.1977
lwrist -1.81848
lhand -19.628 23.4973
lfingers 7.12502
lthumb 6.6989 53.3713
rfemur -9.55792 -3.12669 14.9777
rtibia 27.5618
rfoot -18.4418 -7.09168
rtoes 3.93227
lfemur -13.4901 -4.38643 -10.6267
ltibia 30.8578
lfoot -15.7433 2.04054
ltoes -18.5581
402
root -0.0510752 17.6807 2.77261 2.30913 4.18803 -2.97749
lowerback 8.63035 2.48564 1.9983
upperback 0.278084 3.58445 1.66757
thorax -4.53244 1.74778 0.16682
lowerneck -31.6312 -14.1478 -11.0126
upperneck 0.386277 -16.2808 16.978
head 7.29114 -6.40297 4.82167
rclavicle -2.0773e-014 -2.82274e-014
rhumerus 57.8492 -49.6896 -55.6457
rradius 36.7353
rwrist 5.8435
rhand -60.5723 -29.6075
rfingers 7.12502
rthumb -32.6965 -56.6713
lclavicle -2.0773e-014 -2.82274e-014
lhumerus -42.2197 9.85323 63.279
lradius 46.6121
lwrist -2.13475
lhand -19.5329 23.902
lfingers 7.12502
lthumb 6.79076 53.7731
rfemur -9.33826 -3.26748 15.2761
rtibia 27.4277
rfoot -18.4848 -7.28748
rtoes 3.66731
lfemur -13.6445 -4.37302 -10.3566
ltibia 31.1217
lfoot -15.8191 1.83146
ltoes -18.7922
403
root -0.0434511 17.6767 2.78922 2.22513 4.62283 -3.23108
lowerback 8.49569 2.52324 1.99326
upperback 0.241815 3.62849 1.61447
thorax -4.49116 1.7697 0.114836
lowerneck -31.8642 -14.1298 -11.0477
upperneck 0.853835 -16.2547 16.7828
head 7.45304 -6.37648 4.75716
rclavicle 1.67725e-014 2.38542e-015
rhumerus 57.5063 -49.3248 -55.1803
rradius 37.0652
rwrist 5.70542
rhand -60.3664 -29.8448
rfingers 7.12502
rthumb -32.5006 -56.9491
lclavicle 1.67725e-014 2.38542e-015
lhumerus -41.8331 9.82268 63.3915
lradius 46.8773
lwrist -2.4248
lhand -19.4997 24.1573
lfingers 7.12502
lthumb 6.82279 54.0273
rfemur -9.07119 -3.51905 15.5372
rtibia 27.2742
rfoot -18.5681 -7.43775
rtoes 3.3898
lfemur -13.7719 -4.40893 -10.1091
ltibia 31.4287
lfoot -15.9589 1.60712
ltoes -18.8785
404
root -0.0378275 17.6757 2.80629 2.09364 5.04707 -3.42622
lowerback 8.43347 2.60677 1.87796
upperback 0.199741 3.72585 1.56825
thorax -4.5034 1.81975 0.121447
lowerneck -31.8263 -14.1467 -11.3695
upperneck 1.06211 -16.2032 16.8843
head 7.54835 -6.33786 4.84691
rclavicle -1.16041e-014 8.15017e-015
rhumerus 57.7245 -49.0913 -55.3234
rradius 37.3433
rwrist 6.28378
rhand -59.9701 -29.2282
rfingers 7.12502
rthumb -32.1234 -56.4093
lclavicle -1.16041e-014 8.15017e-015
lhumerus -41.5117 9.68035 63.573
lradius 47.1188
lwrist -2.55149
lhand -19.5733 23.5678
lfingers 7.12502
lthumb 6.75171 53.4401
rfemur -8.73983 -3.63425 15.7394
rtibia 27.1318
rfoot -18.6802 -7.64486
rtoes 3.38705
lfemur -13.8665 -4.35543 -9.92418
ltibia 31.7395
lfoot -16.0601 1.27598
ltoes -18.7351
405
root -0.0318056 17.6725 2.82264 1.98654 5.47309 -3.72459
lowerback 8.33353 2.66834 1.89842
upperback 0.197239 3.80422 1.50961
thorax -4.44389 1.85832 0.045124
lowerneck -31.9527 -14.1357 -11.3716
upperneck 1.15882 -16.1615 16.7479
head 7.57433 -6.31814 4.80751
rclavicle 1.13928e-014 2.38542e-015
rhumerus 57.9852 -48.8497 -55.4094
rradius 37.6323
rwrist 6.86276
rhand -59.8211 -28.8408
rfingers 7.12502
rthumb -31.9815 -56.0504
lclavicle 1.13928e-014 2.38542e-015
lhumerus -41.3232 9.42169 63.7764
lradius 47.8037
lwrist -2.38579
lhand -19.5826 23.823
lfingers 7.12502
lthumb 6.7428 53.6956
rfemur -8.43422 -3.83487 16.0621
rtibia 27.0018
rfoot -18.7604 -7.88115
rtoes 2.92398
lfemur -13.9989 -4.33491 -9.60853
ltibia 32.0422
lfoot -16.1707 0.898372
ltoes -18.447
406
root -0.0244882 17.6685 2.83616 1.8513 5.96296 -3.95486
lowerback 8.32439 2.67695 1.87152
upperback 0.160456 3.80943 1.41276
thorax -4.47203 1.86005 -0.0412358
lowerneck -32.0301 -14.0567 -10.9841
upperneck 1.1827 -16.1099 16.2032
head 7.4879 -6.33382 4.57987
rclavicle -1.06598e-014 -2.99668e-014
rhumerus 57.8979 -48.3968 -55.0045
rradius 37.8921
rwrist 7.09937
rhand -59.9635 -28.5398
rfingers 7.12502
rthumb -32.1171 -55.7222
lclavicle -1.06598e-014 -2.99668e-014
lhumerus -41.3102 9.19221 63.9119
lradius 48.5482
lwrist -2.29039
lhand -19.6372 24.3529
lfingers 7.12502
lthumb 6.69009 54.2272
rfemur -8.09311 -4.12932 16.3024
rtibia 26.9025
rfoot -18.8561 -8.09508
rtoes 2.31444
lfemur -14.1203 -4.37684 -9.37607
ltibia 32.3273
lfoot -16.2868 0.553586
ltoes -18.4719
407
root -0.0167656 17.665 2.8479 1.75102 6.46644 -4.15839
lowerback 8.35211 2.73027 1.79541
upperback 0.06136 3.87008 1.27637
thorax -4.58563 1.88854 -0.151487
lowerneck -32.0989 -13.9813 -10.7951
upperneck 1.39823 -16.0557 15.908
head 7.51276 -6.32068 4.46172
rclavicle 4.97661e-015 -4.19933e-015
rhumerus 57.4028 -47.9386 -54.1493
rradius 38.2202
rwrist 7.08474
rhand -60.1026 -27.3523
rfingers 7.12502
rthumb -32.2495 -54.5078
lclavicle 4.97661e-015 -4.19933e-015
lhumerus -41.2354 8.88963 63.9947
lradius 49.074
lwrist -2.31441
lhand -19.6404 24.3819
lfingers 7.12502
lthumb 6.68698 54.2563
rfemur -7.82817 -4.4388 16.5114
rtibia 26.826
rfoot -18.9573 -8.24408
rtoes 2.03297
lfemur -14.2908 -4.4279 -9.17013
ltibia 32.6024
lfoot -16.4138 0.24324
ltoes -18.9285
408
root -0.0090034 17.6584 2.85927 1.67186 6.96931 -4.39038
lowerback 8.35463 2.84433 1.74557
upperback -0.0336953 4.01059 1.09217
thorax -4.67444 1.95562 -0.334055
lowerneck -32.2043 -13.9532 -10.7608
upperneck 1.70269 -16.0593 15.9025
head 7.6281 -6.30343 4.44774
rclavicle -7.06928e-015 2.47487e-014
rhumerus 56.994 -47.6876 -53.3806
rradius 38.5274
rwrist 7.26599
rhand -60.0346 -26.2087
rfingers 7.12502
rthumb -32.1848 -53.3774
lclavicle -7.06928e-015 2.47487e-014
lhumerus -40.9476 8.41647 64.094
lradius 49.4406
lwrist -2.29014
lhand -19.5851 24.021
lfingers 7.12502
lthumb 6.74038 53.8937
rfemur -7.59699 -4.67547 16.7557
rtibia 26.7326
rfoot -19.1485 -8.44316
rtoes 2.0023
lfemur -14.5066 -4.35465 -8.91106
ltibia 32.8719
lfoot -16.5484 -0.236334
ltoes -18.9745
409
root -0.00141608 17.6505 2.87194 1.56033 7.44038 -4.6045
lowerback 8.37858 2.93531 1.64804
upperback -0.0852302 4.11794 0.967935
thorax -4.73762 2.00853 -0.424188
lowerneck -32.3222 -13.9197 -10.5627
upperneck 1.77204 -16.0325 15.5866
head 7.60954 -6.30742 4.31711
rclavicle -1.04362e-014 -1.98785e-015
rhumerus 56.865 -47.3202 -52.7625
rradius 38.845
rwrist 7.52481
rhand -59.6596 -25.5405
rfingers 7.12502
rthumb -31.8277 -52.7808
lclavicle -1.04362e-014 -1.98785e-015
lhumerus -40.7108 8.26784 64.2348
lradius 49.7863
lwrist -2.29565
lhand -19.4473 23.9376
lfingers 7.12502
lthumb 6.87334 53.806
rfemur -7.3339 -4.77322 16.983
rtibia 26.6108
rfoot -19.3546 -8.74347
rtoes 1.82156
lfemur -14.69 -4.16043 -8.68956
ltibia 33.1426
lfoot -16.7114 -0.714736
ltoes -19.4453
